#define ged_unlink_mask_width 16
#define ged_unlink_mask_height 16
#define ged_unlink_mask_x_hot 14
#define ged_unlink_mask_y_hot 10
static char ged_unlink_mask_bits[] = {
   0x00, 0x00, 0x3c, 0x00, 0x7e, 0x00, 0x7c, 0x00, 0x78, 0x00, 0x70, 0x00,
   0xe0, 0x00, 0xff, 0xff, 0xff, 0x03, 0x3f, 0x06, 0x1f, 0x0c, 0x0e, 0x18,
   0x00, 0x30, 0x00, 0x60, 0x00, 0x00, 0x00, 0x00};
