#define ged_unlink_cursor_width 16
#define ged_unlink_cursor_height 16
#define ged_unlink_cursor_x_hot 14
#define ged_unlink_cursor_y_hot 10
static char ged_unlink_cursor_bits[] = {
   0x00, 0x00, 0x3c, 0x00, 0x46, 0x00, 0x4c, 0x00, 0x58, 0x00, 0x70, 0x00,
   0xe0, 0x00, 0xff, 0xff, 0xe1, 0x03, 0x31, 0x06, 0x19, 0x0c, 0x0e, 0x18,
   0x00, 0x30, 0x00, 0x60, 0x00, 0x00, 0x00, 0x00};
