#define ged_delete_mask_width 16
#define ged_delete_mask_height 16
static char ged_delete_mask_bits[] = {
   0x00, 0x00, 0x00, 0x00, 0x00, 0x00, 0x00, 0x00, 0x00, 0x00, 0x10, 0x00,
   0x10, 0x00, 0xff, 0x3f, 0xff, 0xff, 0xff, 0x3f, 0x10, 0x00, 0x10, 0x00,
   0x00, 0x00, 0x00, 0x00, 0x00, 0x00, 0x00, 0x00};
