#define ged_link_cursor_width 16
#define ged_link_cursor_height 16
#define ged_link_cursor_x_hot 0
#define ged_link_cursor_y_hot 15
static char ged_link_cursor_bits[] = {
   0x00, 0x00, 0x00, 0x10, 0x00, 0x28, 0x00, 0x44, 0x00, 0x2e, 0x00, 0x19,
   0x80, 0x08, 0x40, 0x04, 0x20, 0x02, 0x10, 0x01, 0x88, 0x00, 0x44, 0x00,
   0x26, 0x00, 0x1e, 0x00, 0x0f, 0x00, 0x03, 0x00};
