#define ged_delete_cursor_width 16
#define ged_delete_cursor_height 16
#define ged_delete_cursor_x_hot 14
#define ged_delete_cursor_y_hot 8
static char ged_delete_cursor_bits[] = {
   0x00, 0x00, 0x00, 0x00, 0x00, 0x00, 0x00, 0x00, 0x00, 0x00, 0x10, 0x00,
   0x10, 0x00, 0xff, 0x3f, 0x1f, 0xc0, 0xff, 0x3f, 0x10, 0x00, 0x10, 0x00,
   0x00, 0x00, 0x00, 0x00, 0x00, 0x00, 0x00, 0x00};
