#define line_width 32
#define line_height 32
static char line_bits[] = {
   0xff, 0xff, 0xff, 0xff, 0x01, 0x00, 0x00, 0x80, 0x01, 0x00, 0x00, 0x80,
   0x01, 0x00, 0x00, 0x80, 0x01, 0x00, 0x00, 0x80, 0x01, 0x00, 0x00, 0x84,
   0x01, 0x00, 0x00, 0x82, 0x01, 0x00, 0x00, 0x81, 0x01, 0x00, 0x80, 0x80,
   0x01, 0x00, 0x40, 0x80, 0x01, 0x00, 0x20, 0x80, 0x01, 0x00, 0x10, 0x80,
   0x01, 0x00, 0x08, 0x80, 0x01, 0x00, 0x04, 0x80, 0x01, 0x00, 0x02, 0x80,
   0x01, 0x00, 0x01, 0x80, 0x01, 0x80, 0x00, 0x80, 0x01, 0x40, 0x00, 0x80,
   0x01, 0x20, 0x00, 0x80, 0x01, 0x10, 0x00, 0x80, 0x01, 0x08, 0x00, 0x80,
   0x01, 0x04, 0x00, 0x80, 0x01, 0x02, 0x00, 0x80, 0x01, 0x01, 0x00, 0x80,
   0x81, 0x00, 0x00, 0x80, 0x41, 0x00, 0x00, 0x80, 0x21, 0x00, 0x00, 0x80,
   0x01, 0x00, 0x00, 0x80, 0x01, 0x00, 0x00, 0x80, 0x01, 0x00, 0x00, 0x80,
   0x01, 0x00, 0x00, 0x80, 0xff, 0xff, 0xff, 0xff};
