#define oval_width 32
#define oval_height 32
static char oval_bits[] = {
   0xff, 0xff, 0xff, 0xff, 0x01, 0x00, 0x00, 0x80, 0x01, 0x00, 0x00, 0x80,
   0x01, 0x00, 0x00, 0x80, 0x01, 0x00, 0x00, 0x80, 0x01, 0x00, 0x00, 0x80,
   0x01, 0x00, 0x00, 0x80, 0x01, 0xf0, 0x0f, 0x80, 0x01, 0x0e, 0x70, 0x80,
   0x81, 0x03, 0xc0, 0x81, 0xc1, 0x00, 0x00, 0x83, 0x41, 0x00, 0x00, 0x82,
   0x61, 0x00, 0x00, 0x86, 0x21, 0x00, 0x00, 0x84, 0x21, 0x00, 0x00, 0x84,
   0x21, 0x00, 0x00, 0x84, 0x21, 0x00, 0x00, 0x84, 0x21, 0x00, 0x00, 0x84,
   0x21, 0x00, 0x00, 0x84, 0x61, 0x00, 0x00, 0x86, 0x41, 0x00, 0x00, 0x82,
   0xc1, 0x00, 0x00, 0x83, 0x81, 0x03, 0xc0, 0x81, 0x01, 0x0e, 0x70, 0x80,
   0x01, 0xf0, 0x0f, 0x80, 0x01, 0x00, 0x00, 0x80, 0x01, 0x00, 0x00, 0x80,
   0x01, 0x00, 0x00, 0x80, 0x01, 0x00, 0x00, 0x80, 0x01, 0x00, 0x00, 0x80,
   0x01, 0x00, 0x00, 0x80, 0xff, 0xff, 0xff, 0xff};
