#define polygon_width 32
#define polygon_height 32
static char polygon_bits[] = {
   0xff, 0xff, 0xff, 0xff, 0x01, 0x00, 0x00, 0x80, 0x01, 0x00, 0x00, 0x80,
   0x01, 0x00, 0x00, 0x80, 0x01, 0x00, 0x00, 0x80, 0x01, 0x00, 0x00, 0x80,
   0x01, 0x00, 0x00, 0x80, 0x01, 0x00, 0x07, 0x80, 0x01, 0x02, 0xf9, 0x81,
   0x01, 0x05, 0x01, 0x8e, 0x01, 0x09, 0x01, 0x88, 0x81, 0x90, 0x00, 0x88,
   0x41, 0xa0, 0x00, 0x84, 0x41, 0xc0, 0x00, 0x84, 0x21, 0x80, 0x00, 0x84,
   0x21, 0x00, 0x00, 0x84, 0x21, 0x00, 0x00, 0x82, 0x21, 0x00, 0x00, 0x82,
   0x21, 0x00, 0x00, 0x82, 0x21, 0x00, 0x00, 0x82, 0x21, 0x00, 0x00, 0x81,
   0x21, 0x00, 0xf0, 0x81, 0x21, 0xfc, 0x0f, 0x80, 0xe1, 0x03, 0x00, 0x80,
   0x01, 0x00, 0x00, 0x80, 0x01, 0x00, 0x00, 0x80, 0x01, 0x00, 0x00, 0x80,
   0x01, 0x00, 0x00, 0x80, 0x01, 0x00, 0x00, 0x80, 0x01, 0x00, 0x00, 0x80,
   0x01, 0x00, 0x00, 0x80, 0xff, 0xff, 0xff, 0xff};
