#define rectangle_width 32
#define rectangle_height 32
static char rectangle_bits[] = {
   0xff, 0xff, 0xff, 0xff, 0x01, 0x00, 0x00, 0x80, 0x01, 0x00, 0x00, 0x80,
   0x01, 0x00, 0x00, 0x80, 0x01, 0x00, 0x00, 0x80, 0x01, 0x00, 0x00, 0x80,
   0x01, 0x00, 0x00, 0x80, 0x01, 0x00, 0x00, 0x80, 0x01, 0x00, 0x00, 0x80,
   0x01, 0x00, 0x00, 0x80, 0xe1, 0xff, 0xff, 0x87, 0x21, 0x00, 0x00, 0x84,
   0x21, 0x00, 0x00, 0x84, 0x21, 0x00, 0x00, 0x84, 0x21, 0x00, 0x00, 0x84,
   0x21, 0x00, 0x00, 0x84, 0x21, 0x00, 0x00, 0x84, 0x21, 0x00, 0x00, 0x84,
   0x21, 0x00, 0x00, 0x84, 0x21, 0x00, 0x00, 0x84, 0x21, 0x00, 0x00, 0x84,
   0xe1, 0xff, 0xff, 0x87, 0x01, 0x00, 0x00, 0x80, 0x01, 0x00, 0x00, 0x80,
   0x01, 0x00, 0x00, 0x80, 0x01, 0x00, 0x00, 0x80, 0x01, 0x00, 0x00, 0x80,
   0x01, 0x00, 0x00, 0x80, 0x01, 0x00, 0x00, 0x80, 0x01, 0x00, 0x00, 0x80,
   0x01, 0x00, 0x00, 0x80, 0xff, 0xff, 0xff, 0xff};
