#define roundrect_width 32
#define roundrect_height 32
static char roundrect_bits[] = {
   0xff, 0xff, 0xff, 0xff, 0x01, 0x00, 0x00, 0x80, 0x01, 0x00, 0x00, 0x80,
   0x01, 0x00, 0x00, 0x80, 0x01, 0x00, 0x00, 0x80, 0x01, 0xfe, 0x7f, 0x80,
   0x81, 0x01, 0x80, 0x81, 0x41, 0x00, 0x00, 0x82, 0x41, 0x00, 0x00, 0x82,
   0x21, 0x00, 0x00, 0x84, 0x21, 0x00, 0x00, 0x84, 0x21, 0x00, 0x00, 0x84,
   0x21, 0x00, 0x00, 0x84, 0x21, 0x00, 0x00, 0x84, 0x21, 0x00, 0x00, 0x84,
   0x21, 0x00, 0x00, 0x84, 0x21, 0x00, 0x00, 0x84, 0x21, 0x00, 0x00, 0x84,
   0x21, 0x00, 0x00, 0x84, 0x21, 0x00, 0x00, 0x84, 0x21, 0x00, 0x00, 0x84,
   0x21, 0x00, 0x00, 0x84, 0x21, 0x00, 0x00, 0x84, 0x41, 0x00, 0x00, 0x82,
   0x41, 0x00, 0x00, 0x82, 0x81, 0x01, 0x80, 0x81, 0x01, 0xfe, 0x7f, 0x80,
   0x01, 0x00, 0x00, 0x80, 0x01, 0x00, 0x00, 0x80, 0x01, 0x00, 0x00, 0x80,
   0x01, 0x00, 0x00, 0x80, 0xff, 0xff, 0xff, 0xff};
