/* XPM */
static char * wave2 [] = {
/* wave2 pixmap
/* width height ncolors chars_per_pixel */
"50 50 7 1",
" 	c lightblue",
".	c white",
"X	c yellow",
"o	c black",
"O	c #000040407979",
"+	c #B7B7C2C2E5E5",
"@	c red",
/* pixels */
"                                                  ",
"                                                  ",
"             .. ..                                ",
"            .  .  .                               ",
"               .          XXXXXXXXX               ",
"                        XXXXXXXXXXXXX             ",
"                       XXXXXXXXXXXXXXX            ",
"                     XXXXXXXXXXXXXXXXXXX   .. ..  ",
"       .......       XXXXXXXXXXXXXXXXXXX  .  .  . ",
"     ...........    XXXXXXXXXXXXXXXXXXXXX    .    ",
"    .............  XXXXXXXXooXooXXXXXXXXXX        ",
"   .......OOOOO....XXXXXXXoXXoXXoXXXXXXXXX        ",
"   .....OOOOOOOOOO...XXXXXXXXoXXXXXXXXXXXXX       ",
"  ......OOOOOOOOOOOO..XXXXXXXXXXXXXXXXXXXXX       ",
"  ..   .+OOOOOOOOOOOOO++XXXXXXXXXXXXXXXXXXX       ",
"  .     +OOOOOOOOOOOOOOO++XXXXXXXXXXXXXXXXX       ",
" .       +OOOOOOOOOOOOOOOO++XXXXXXXXXXXXXXX       ",
" .       +OOOOOOOOOOOOOOOOOO+XXXXXXXXXXXXXX       ",
"          +OOOOOOOOOOOOOOOOOO++XXXXXXXXXXXX       ",
"          +OOOOOOOOOOOOOOOOOOOO+XXXXXXXXXXX       ",
" .         +OOOOOOOOOOOOOOOOOOOO+XXXXXXXXXX       ",
"           +OOOOOOOOOOOOOOOOOOOOO++XXXXXXX        ",
" .         +OOOOOOOOOOOOOOOOOOOOOOO+XXXXXX        ",
"           +OOOOOOOOOOOOOOOOOOOOOOOO++XXX         ",
"           +OOOOOOOOOOOOOOOOOOOOOOOOOO+X          ",
"           +OOOOOOOOOOOOOOOOOOOOOOOOOOO+          ",
"           +OOOOOOOOOOOOOOOOOOOOOOOOOOOO+         ",
"           +OOOOOOOOOOOOOOOOOOOOOOOOOOOOO+        ",
"          +OOOOOOOOOOOOOOOOOOOOOOOOOOOOOOOO       ",
"          +OOOOOOOOOOOOOOOOOOOOOOOOOOOOOOOOO      ",
"         +OOOOOOOOOOOOOOOOOOOOOOOOOOOOOOOOOOO     ",
"        +OOOOOOOOOOOOOOOOOOOOOOOOOOOOOOOOOOOOOO   ",
"++++++++OOOOOOOOOOOOOOOOOOOOOOOOOOOOOOOOOOOOOOOOO ",
"OOOOOOOOOOOOOOOOOOOOOOOOOOOOOOOOOOOOOOOOOOOOOOOOOO",
"OOOOOOOOOOOOOOOOOOOOOOOOOOOOOOOOOOOOOOOOOOOOOOOOOO",
"OOOOOOOOOOOOOOOOOOOOOOOOOOOOOOOOOOOOOOOOOOOOOOOOOO",
"OOOOOOOOOOOOOOOOOOOOOOOOOOOOOOOOOOOOOOOOOOOOOOOOOO",
"OOOOOOOOOOOOOOOOOOOOOOOOOOOOOOOOOOOOOOOOOOOOOOOOOO",
"@@OOOOOOOOOOOOOOOOO@@OO@@@OO@@OOOOOOOOO@@OO@@@@@@@",
"@@OOOOOOOOOOOOOOOOO@@OO@@@OO@@OOOOOOOOO@@OO@@@@@@O",
"O@@OOOOOOOOOOOOOOO@@OO@@O@@OO@@OOOOOOO@@OO@@OOOOOO",
"O@@OOOOOOOOOOOOOOO@@OO@@O@@OO@@OOOOOOO@@OO@@OOOOOO",
"OO@@OOOOO@@@OOOOO@@OO@@OOO@@OO@@OOOOO@@OO@@OOOOOOO",
"OO@@OOOOO@@@OOOOO@@OO@@OOO@@OO@@OOOOO@@OO@@@@@OOOO",
"OOO@@OOO@@O@@OOO@@OO@@OOOOO@@OO@@OOO@@OO@@@@@OOOOO",
"OOO@@OOO@@O@@OOO@@OO@@@@@@@@@OO@@OOO@@OO@@OOOOOOOO",
"OOOO@@O@@OOO@@O@@OO@@@@@@@@@@@OO@@O@@OO@@OOOOOOOOO",
"OOOO@@O@@OOO@@O@@OO@@OOOOOOO@@OO@@O@@OO@@OOOOOOOOO",
"OOOOO@@@OOOOO@@@OO@@OOOOOOOOO@@OO@@@OO@@@@@@@@OOOO",
"OOOOO@@@OOOOO@@@OO@@OOOOOOOOO@@OO@@@OO@@@@@@@OOOOO"
};
