#define formula_width 11
#define formula_height 11
static char formula_bits[] = {
   0xf8, 0x00, 0xfc, 0x01, 0x06, 0x03, 0xf7, 0x07, 0xf7, 0x07, 0x87, 0x07,
   0xf7, 0x07, 0xf7, 0x07, 0xf6, 0x03, 0xfc, 0x01, 0xf8, 0x00};
