#define inherited_width 11
#define inherited_height 11
static char inherited_bits[] = {
   0xf8, 0x00, 0x04, 0x01, 0xfa, 0x02, 0x21, 0x04, 0x21, 0x04, 0x21, 0x04,
   0x21, 0x04, 0x21, 0x04, 0xfa, 0x02, 0x04, 0x01, 0xf8, 0x00};
