#define dnarrow_width 9
#define dnarrow_height 10
static char dnarrow_bits[] = {
   0x7c, 0x00, 0x44, 0x00, 0x44, 0x00, 0x44, 0x00, 0x44, 0x00, 0xc7, 0x01,
   0x82, 0x00, 0x44, 0x00, 0x28, 0x00, 0x10, 0x00};
