#define pop_up_icon_width 14
#define pop_up_icon_height 11
static char pop_up_icon_bits[] = {
   0xff, 0x3f, 0x01, 0x20, 0xf9, 0x27, 0x01, 0x20, 0xf9, 0x27, 0x01, 0x20,
   0xf9, 0x27, 0x01, 0x20, 0xf9, 0x27, 0x01, 0x20, 0xff, 0x3f};
