#define pop-up-icon-no-border_width 9
#define pop-up-icon-no-border_height 10
static char pop-up-icon-no-border_bits[] = {
   0xff, 0x01, 0x00, 0x00, 0x00, 0x00, 0xff, 0x01, 0x00, 0x00, 0x00, 0x00,
   0xff, 0x01, 0x00, 0x00, 0x00, 0x00, 0xff, 0x01};
